# xmcd
#
# Track frame offsets: 
#        150
#        19974
#        38934
#        63256
#        81755
#        100680
#        123486
#        145073
#        165070
#        181752
#        200650
#        215578
#        233825
#        258099
#        269822
#        289882
#        306405
#        318103
#        339887
#
# Disc length: 4738 seconds
#
# Revision: 0
# Processed by: cddbd v1.5.1PL0 Copyright (c) Steve Scherf et al.
# Submitted via: ExactAudioCopy v0.95a5
#
DISCID=0c128013
DTITLE=Joe Cocker - Best Of
DYEAR=2004
DGENRE=
TTITLE0=My Father's Son
TTITLE1=You Can Leave Hat On
TTITLE2=Where Would I Be Now
TTITLE3=Could You Be Loved
TTITLE4=Len The Healing Begin
TTITLE5=Unchain My Heart
TTITLE6=Different Roads
TTITLE7=What Do You Say?
TTITLE8=First We Take Manhattan
TTITLE9=Look What You're Done
TTITLE10=Shocked
TTITLE11=Sweet I'll Woman
TTITLE12=Seven Days
TTITLE13=Marie
TTITLE14=Rube Lee
TTITLE15=Many Rivers
TTITLE16=So Good. So Right
TTITLE17=Talking Back To The Night
TTITLE18=Just Like Always
EXTD=
EXTT0=
EXTT1=
EXTT2=
EXTT3=
EXTT4=
EXTT5=
EXTT6=
EXTT7=
EXTT8=
EXTT9=
EXTT10=
EXTT11=
EXTT12=
EXTT13=
EXTT14=
EXTT15=
EXTT16=
EXTT17=
EXTT18=
PLAYORDER=
